<?xml version="1.0" encoding="UTF-8"?>
<svg version="1.1" xmlns="http://www.w3.org/2000/svg" width="32" height="32">
<path d="M0 0 C2 1 2 1 3 3 C3.56866675 7.47475477 3.54772167 10.17841749 1 14 C0.61500109 15.65549531 0.27206865 17.3222433 0 19 C-2.97 19 -5.94 19 -9 19 C-9 18.34 -9 17.68 -9 17 C-9.66 17 -10.32 17 -11 17 C-10.773125 17.886875 -10.54625 18.77375 -10.3125 19.6875 C-9.94458369 23.5874129 -10.59759022 24.97474324 -13 28 C-13.66 28 -14.32 28 -15 28 C-15 28.66 -15 29.32 -15 30 C-17.97 30 -20.94 30 -24 30 C-24.309375 29.05125 -24.61875 28.1025 -24.9375 27.125 C-25.87394742 24.13919592 -25.87394742 24.13919592 -27 22 C-27.45070423 14.90140845 -27.45070423 14.90140845 -26 12 C-22.67072145 10.33536072 -19.69101521 10.76564983 -16 11 C-15.34 11.33 -14.68 11.66 -14 12 C-13.67 10.02 -13.34 8.04 -13 6 C-13.66 6 -14.32 6 -15 6 C-15 5.34 -15 4.68 -15 4 C-15.99 4.33 -16.98 4.66 -18 5 C-18.33 6.65 -18.66 8.3 -19 10 C-19.66 9.67 -20.32 9.34 -21 9 C-21 7.35 -21 5.7 -21 4 C-17.38026598 2.68373308 -14.90432869 2 -11 2 C-7.17841749 -0.54772167 -4.47475477 -0.56866675 0 0 Z M-14 12 C-13.01 13.485 -13.01 13.485 -12 15 C-12 14.01 -12 13.02 -12 12 C-12.66 12 -13.32 12 -14 12 Z " fill="#AD76A4" transform="translate(28,1)"/>
<path d="M0 0 C3.97816502 2.65211001 4.37986527 5.03976373 5.62890625 9.51171875 C6 12 6 12 4.8125 15.125 C4.214375 15.74375 3.61625 16.3625 3 17 C2.34 17 1.68 17 1 17 C1 17.66 1 18.32 1 19 C-1.97 19 -4.94 19 -8 19 C-8.309375 18.05125 -8.61875 17.1025 -8.9375 16.125 C-9.87394742 13.13919592 -9.87394742 13.13919592 -11 11 C-11.45070423 3.90140845 -11.45070423 3.90140845 -10 1 C-6.81374429 -0.59312786 -3.48933044 -0.54169041 0 0 Z " fill="#6F5C8D" transform="translate(12,12)"/>
<path d="M0 0 C6 0 6 0 7.875 1 C9.64629177 4.14896314 9.54794453 7.47038329 9 11 C8.01 12.485 8.01 12.485 7 14 C6.61500109 15.65549531 6.27206865 17.3222433 6 19 C5.01 19 4.02 19 3 19 C2.67 16.69 2.34 14.38 2 12 C1.34 12 0.68 12 0 12 C0 8.04 0 4.08 0 0 Z " fill="#D085B0" transform="translate(22,1)"/>
<path d="M0 0 C0.07347656 1.03060547 0.07347656 1.03060547 0.1484375 2.08203125 C0.22320313 2.98308594 0.29796875 3.88414063 0.375 4.8125 C0.44460937 5.70582031 0.51421875 6.59914063 0.5859375 7.51953125 C0.86645036 10.24398499 0.86645036 10.24398499 3 13 C3.125 16.1875 3.125 16.1875 3 19 C1.02 19 -0.96 19 -3 19 C-3.309375 18.05125 -3.61875 17.1025 -3.9375 16.125 C-4.87394742 13.13919592 -4.87394742 13.13919592 -6 11 C-6.46312888 3.70572019 -6.46312888 3.70572019 -4.6875 1 C-3 0 -3 0 0 0 Z " fill="#4E4F82" transform="translate(7,12)"/>
<path d="M0 0 C1.32 0 2.64 0 4 0 C4 6.27 4 12.54 4 19 C3.67 19 3.34 19 3 19 C2.67 16.69 2.34 14.38 2 12 C1.34 12 0.68 12 0 12 C0 8.04 0 4.08 0 0 Z " fill="#CD84AF" transform="translate(22,1)"/>
<path d="M0 0 C1.485 0.99 1.485 0.99 3 2 C3.328125 3.875 3.328125 3.875 3.25 6 C3.22679687 7.051875 3.22679687 7.051875 3.203125 8.125 C3 10 3 10 2 12 C1.34 12 0.68 12 0 12 C0 8.04 0 4.08 0 0 Z " fill="#E28CB7" transform="translate(28,2)"/>
<path d="M0 0 C0.33 0 0.66 0 1 0 C1 2.31 1 4.62 1 7 C-1.64 7.33 -4.28 7.66 -7 8 C-6.67 6.68 -6.34 5.36 -6 4 C-5.34 4 -4.68 4 -4 4 C-4 4.66 -4 5.32 -4 6 C-3.01 5.67 -2.02 5.34 -1 5 C-0.67 3.35 -0.34 1.7 0 0 Z " fill="#7D6391" transform="translate(24,21)"/>
</svg>
