<?xml version="1.0" encoding="UTF-8"?>
<svg version="1.1" xmlns="http://www.w3.org/2000/svg" width="512" height="512">
<path d="M0 0 C0.97481892 -0.00679667 0.97481892 -0.00679667 1.96933115 -0.01373065 C4.1393256 -0.02635499 6.30906843 -0.02475556 8.47909546 -0.02310181 C10.03832318 -0.02908851 11.59754793 -0.03589438 13.1567688 -0.04345703 C17.38849718 -0.06111508 21.62014464 -0.06581248 25.8519063 -0.0670886 C28.4991836 -0.06851147 31.14644041 -0.07278377 33.79371262 -0.07808304 C43.03943941 -0.09658639 52.28510857 -0.10475373 61.53085327 -0.10317993 C70.13149553 -0.10198015 78.73188618 -0.12304952 87.33246481 -0.15466726 C94.72886663 -0.18088314 102.12518658 -0.19154493 109.52163446 -0.19026911 C113.9335053 -0.18976081 118.34515276 -0.19537004 122.75697708 -0.21662521 C126.91198433 -0.23609601 131.06655727 -0.23607223 135.22158051 -0.22159195 C136.7392249 -0.21951329 138.2568971 -0.22414805 139.77449417 -0.23631287 C151.04866776 -0.32076704 161.10587647 0.79204005 170.02352905 8.32992554 C170.84079468 9.0015271 171.6580603 9.67312866 172.50009155 10.36508179 C174.39852905 12.26742554 174.39852905 12.26742554 175.39852905 15.26742554 C176.05852905 15.26742554 176.71852905 15.26742554 177.39852905 15.26742554 C177.64731812 14.67961304 177.89610718 14.09180054 178.1524353 13.48617554 C179.58468393 10.93596481 181.05098953 9.58554016 183.33602905 7.76742554 C184.02567749 7.20023804 184.71532593 6.63305054 185.4258728 6.04867554 C194.98831117 0.31875189 204.32803002 -0.31407642 215.20785522 -0.25015259 C216.77283883 -0.2555837 218.33781731 -0.26271187 219.90278625 -0.27139282 C224.12167519 -0.28950729 228.34016948 -0.28260947 232.55906463 -0.26987648 C236.98890543 -0.25969219 241.41871427 -0.26915665 245.84855652 -0.27542114 C253.28186056 -0.28267954 260.71500513 -0.27315509 268.14828491 -0.25405884 C276.72868733 -0.23226948 285.30870981 -0.23936364 293.88910311 -0.26136446 C301.27540903 -0.27954143 308.66160089 -0.2820663 316.04792196 -0.27160978 C320.45119759 -0.26539054 324.85429482 -0.26449632 329.25755882 -0.27775574 C333.39544076 -0.28934806 337.5328344 -0.28122733 341.67066383 -0.25817871 C343.18472103 -0.25291063 344.69881965 -0.25437273 346.21286011 -0.26322937 C355.38744319 -0.31193238 362.4317532 -0.08499303 369.64071655 6.23226929 C370.17954468 6.88324585 370.7183728 7.53422241 371.27352905 8.20492554 C371.82782593 8.85332397 372.3821228 9.50172241 372.95321655 10.16976929 C376.20126362 14.88382679 376.64053183 18.86408804 376.59384155 24.53695679 C376.58959671 25.55846077 376.58959671 25.55846077 376.58526611 26.6006012 C376.5741343 28.76056009 376.54904362 30.92009348 376.52352905 33.07992554 C376.51349016 34.55062264 376.5043659 36.0213263 376.4961853 37.49203491 C376.47421819 41.08396839 376.43973725 44.67565538 376.39852905 48.26742554 C377.2183728 48.22101929 378.03821655 48.17461304 378.88290405 48.12680054 C379.9605603 48.09070679 381.03821655 48.05461304 382.14852905 48.01742554 C383.2158728 47.97101929 384.28321655 47.92461304 385.38290405 47.87680054 C388.39852905 48.26742554 388.39852905 48.26742554 390.75595093 49.90707397 C392.83216117 52.89054612 392.91437028 54.66528993 392.92977905 58.28305054 C392.9349353 59.45223022 392.94009155 60.62140991 392.94540405 61.82601929 C392.9299353 63.04418335 392.91446655 64.26234741 392.89852905 65.51742554 C392.9139978 66.72012085 392.92946655 67.92281616 392.94540405 69.16195679 C392.90898067 77.45738261 391.95386902 83.21023837 386.4336853 89.50961304 C385.78270874 90.04844116 385.13173218 90.58726929 384.46102905 91.14242554 C383.81263062 91.69672241 383.16423218 92.25101929 382.4961853 92.82211304 C377.98972762 95.92712113 374.14560412 96.51644056 368.72303772 96.50793457 C367.73657697 96.51049784 367.73657697 96.51049784 366.73018771 96.5131129 C364.53448039 96.51639773 362.3390811 96.50542099 360.1434021 96.49447632 C358.56633003 96.49391199 356.98925743 96.4942292 355.41218567 96.49536133 C351.13571252 96.49593498 346.85935164 96.48417862 342.58290458 96.47021341 C338.1119314 96.45770818 333.64095562 96.45653572 329.16996765 96.4541626 C320.70569317 96.44794723 312.24147037 96.43153562 303.77721864 96.41146362 C294.14005026 96.38910641 284.5028794 96.37811163 274.86569154 96.36807275 C255.0432752 96.34716945 235.22090538 96.31199234 215.39852905 96.26742554 C215.09906372 97.21593384 214.79959839 98.16444214 214.49105835 99.14169312 C213.40880318 102.2380312 212.51384815 103.69426331 210.21102905 105.95492554 C209.66059937 106.51566772 209.11016968 107.07640991 208.5430603 107.65414429 C202.29798904 112.35216693 196.50032613 112.72452581 188.9336853 112.70101929 C187.94154526 112.70626114 186.94940521 112.71150299 185.92720032 112.71690369 C183.83700493 112.72330332 181.74677342 112.72201368 179.65658569 112.71347046 C176.47420577 112.70496077 173.29362264 112.7337512 170.11141968 112.76547241 C168.07300875 112.76708475 166.03459468 112.76650626 163.9961853 112.76351929 C163.05324112 112.77475327 162.11029694 112.78598724 161.13877869 112.79756165 C153.91734304 112.72210251 148.59243505 111.07236528 143.1211853 106.26742554 C142.57333374 105.60742554 142.02548218 104.94742554 141.46102905 104.26742554 C140.89513062 103.60742554 140.32923218 102.94742554 139.7461853 102.26742554 C138.36284219 100.21446417 137.92810368 98.6556423 137.39852905 96.26742554 C136.58130623 96.27111271 135.7640834 96.27479988 134.92209625 96.27859879 C115.02437054 96.36699019 95.12667873 96.43315482 75.22879791 96.47467422 C65.60626671 96.49528712 55.98386668 96.52338338 46.36141968 96.56918335 C37.97311549 96.60909009 29.58490632 96.63486761 21.19650984 96.64377952 C16.75612594 96.64898777 12.31601383 96.66120246 7.87571716 96.69034576 C3.69291776 96.71757557 -0.48949892 96.72585533 -4.67237854 96.71985626 C-6.20419395 96.72095313 -7.73602269 96.72886206 -9.26776123 96.74424744 C-18.50617688 96.83245912 -25.58139759 96.66654906 -32.84365845 90.30258179 C-33.38248657 89.65160522 -33.9213147 89.00062866 -34.47647095 88.32992554 C-35.03076782 87.6815271 -35.5850647 87.03312866 -36.15615845 86.36508179 C-40.58238797 79.94106759 -39.96857902 73.22198457 -39.97647095 65.70492554 C-40.00096313 64.47322632 -40.02545532 63.2415271 -40.0506897 61.97250366 C-40.05455688 60.78978882 -40.05842407 59.60707397 -40.06240845 58.38851929 C-40.07062622 57.31013794 -40.07884399 56.23175659 -40.08731079 55.12069702 C-39.60147095 52.26742554 -39.60147095 52.26742554 -37.96328735 49.90048218 C-34.90220128 47.78392184 -33.03673413 47.8571967 -29.35147095 48.01742554 C-28.2738147 48.05351929 -27.19615845 48.08961304 -26.08584595 48.12680054 C-25.2660022 48.17320679 -24.44615845 48.21961304 -23.60147095 48.26742554 C-23.62241821 47.37023804 -23.64336548 46.47305054 -23.66494751 45.54867554 C-23.73354711 42.18642695 -23.78347389 38.82493319 -23.82119751 35.46224976 C-23.8411839 34.01323636 -23.86838292 32.56430229 -23.90322876 31.11557007 C-24.12367599 21.70766027 -24.18000838 14.49223764 -17.6366272 7.02523804 C-16.98565063 6.48640991 -16.33467407 5.94758179 -15.66397095 5.39242554 C-15.01557251 4.83812866 -14.36717407 4.28383179 -13.6991272 3.71273804 C-9.22513632 0.6301 -5.38320585 0.01554078 0 0 Z M-5.60147095 19.26742554 C-9.08703365 27.08380483 -9.08703365 27.08380483 -7.60147095 48.26742554 C50.47852905 48.26742554 108.55852905 48.26742554 168.39852905 48.26742554 C168.39852905 39.28056161 168.256997 32.39258925 162.39852905 25.26742554 C155.18377818 18.1042086 148.38533409 16.15573436 138.25057983 16.12698364 C137.03936462 16.1212735 135.82814941 16.11556335 134.58023071 16.10968018 C133.26472229 16.10856232 131.94921387 16.10744446 130.59384155 16.10629272 C129.18398917 16.10165968 127.77413803 16.09663437 126.36428833 16.09124756 C122.54618117 16.07817331 118.72809155 16.07168903 114.90996552 16.0672369 C112.52287055 16.06429973 110.13578032 16.06019384 107.74868774 16.05573273 C100.27466035 16.04207446 92.80064385 16.03239814 85.32660484 16.02853084 C76.70781885 16.02404605 68.08919113 16.00647171 59.47045326 15.97753024 C52.80022673 15.95591087 46.13004475 15.94582651 39.45978355 15.94448972 C35.47903724 15.9434424 31.49844005 15.93754957 27.51773071 15.9196701 C23.77481545 15.90318363 20.03216137 15.90103657 16.28922272 15.90980911 C14.26507162 15.9109455 12.24092915 15.89723493 10.21682739 15.88305664 C8.40000458 15.89141037 8.40000458 15.89141037 6.54647827 15.89993286 C5.49789642 15.8984663 4.44931458 15.89699974 3.36895752 15.89548874 C-0.23684995 16.34698336 -2.55876639 17.28073942 -5.60147095 19.26742554 Z M190.14852905 25.70492554 C184.4683458 32.6753854 184.39852905 39.41332713 184.39852905 48.26742554 C242.47852905 48.26742554 300.55852905 48.26742554 360.39852905 48.26742554 C362.18738343 26.72710031 362.18738343 26.72710031 357.39852905 18.26742554 C353.78309765 16.14209459 350.52850928 16.01644205 346.39102173 16.01345825 C345.18551666 16.0078186 343.9800116 16.00217896 342.73797607 15.99636841 C341.42358551 16.00041687 340.10919495 16.00446533 338.75497437 16.00863647 C337.3501365 16.00592493 335.94530006 16.00236309 334.54046631 15.99801636 C330.73032673 15.9889061 326.9202956 15.99243186 323.11015415 15.99877453 C319.11584244 16.00384557 315.12153987 15.99913963 311.12722778 15.9960022 C304.41556131 15.99236409 297.70393884 15.99715582 290.99227905 16.00668335 C283.2482662 16.01754988 275.50435882 16.01405484 267.76034856 16.00303054 C261.10112969 15.99393204 254.44194245 15.99268542 247.78271937 15.99790788 C243.81029074 16.0010158 239.83791154 16.0014698 235.86548615 15.9948349 C232.12588741 15.98902536 228.38642344 15.99312384 224.64683914 16.00462341 C222.6316267 16.00849811 220.61640277 16.00261393 218.60119629 15.99636841 C207.2362362 16.04904362 198.14929066 16.83661146 190.14852905 25.70492554 Z M-23.60147095 64.26742554 C-23.8546034 72.07460464 -23.8546034 72.07460464 -20.60147095 78.26742554 C-16.63569132 80.34820352 -13.22896889 80.51967588 -8.79431152 80.52571106 C-8.12245351 80.52938676 -7.4505955 80.53306247 -6.75837815 80.53684956 C-4.51442877 80.54680394 -2.27072844 80.542684 -0.02676392 80.53866577 C1.58485171 80.54305415 3.19646507 80.54835672 4.80807495 80.55450439 C8.27460237 80.56599428 11.74106875 80.57146305 15.2076149 80.57238579 C20.68650117 80.57432682 26.16526105 80.5923803 31.644104 80.61314392 C45.24930353 80.66232151 58.85453725 80.69324825 72.45980835 80.71444702 C83.03933622 80.73095401 93.61875555 80.75371224 104.1982106 80.79746777 C109.6475294 80.81928674 115.09664218 80.82729812 120.54600167 80.82507503 C123.9310078 80.82673796 127.31587852 80.84076224 130.70083618 80.85828781 C132.27342625 80.86390197 133.84604421 80.86435913 135.41863632 80.8593502 C137.56118171 80.85323987 139.70286661 80.86538251 141.84533691 80.88215637 C143.04546984 80.8841677 144.24560276 80.88617903 145.48210335 80.8882513 C148.39852905 81.26742554 148.39852905 81.26742554 150.26196098 82.65673923 C152.08219974 85.23628877 152.54794552 88.07345305 153.2618103 91.11117554 C154.95618955 94.32525576 157.07603894 94.90492941 160.39852905 96.26742554 C163.96924456 96.72433348 163.96924456 96.72433348 167.77352905 96.66586304 C168.80485962 96.6701683 168.80485962 96.6701683 169.85702515 96.67456055 C171.30250885 96.67659095 172.74802067 96.67113305 174.19345093 96.65853882 C176.39264988 96.6424685 178.59001153 96.65842036 180.78915405 96.67758179 C182.2006164 96.67559917 183.61207761 96.67175511 185.02352905 96.66586304 C186.29454468 96.66247925 187.5655603 96.65909546 188.87509155 96.65560913 C192.71210142 96.23287869 195.1371151 95.30626408 198.39852905 93.26742554 C199.88732929 90.62884708 199.88732929 90.62884708 200.64852905 87.64242554 C201.18865626 85.83726354 201.76296197 84.04123548 202.39852905 82.26742554 C205.24251003 80.84543505 207.64368097 81.13617181 210.82473755 81.12939453 C211.49191559 81.12657325 212.15909363 81.12375197 212.84648919 81.1208452 C215.09268857 81.11248081 217.33883879 81.11115937 219.58505249 81.10971069 C221.19135681 81.10504376 222.7976598 81.0999004 224.40396118 81.09431458 C227.86888251 81.08302209 231.33379518 81.07459342 234.79872894 81.06819534 C240.27817501 81.0575276 245.75755906 81.03728556 251.23696899 81.01507568 C266.82041582 80.95311176 282.40385941 80.89914657 297.98739624 80.86605835 C306.58963536 80.84771298 315.19177103 80.818777 323.79393411 80.77805364 C328.34703172 80.75698011 332.89999893 80.7415259 337.45314789 80.73924637 C341.73776094 80.73709884 346.0221026 80.72121883 350.306633 80.69485664 C351.87795515 80.68766584 353.4493102 80.68556163 355.02064514 80.68895912 C357.16887902 80.69286148 359.3162494 80.67837586 361.46438599 80.65942383 C362.66564999 80.65611368 363.86691399 80.65280354 365.10457993 80.64939308 C368.80668944 80.22009511 371.22591793 79.19573475 374.39852905 77.26742554 C377.17913087 72.84374083 376.39852905 69.90617923 376.39852905 64.26742554 C244.39852905 64.26742554 112.39852905 64.26742554 -23.60147095 64.26742554 Z " fill="#51B0F0" transform="translate(79.60147094726563,359.7325744628906)"/>
<path d="M0 0 C14.13457848 11.15061191 24.34477738 24.88353294 30.25 41.96875 C30.64316406 43.08894531 31.03632813 44.20914063 31.44140625 45.36328125 C38.55302528 69.0273794 34.82928751 94.42657299 23.25 115.96875 C17.0237136 126.0451686 8.94259449 134.79078229 -0.03125 142.46484375 C-5.02622403 146.83544602 -7.24598209 151.59946202 -8.75 157.96875 C-9.21694709 161.88424972 -9.21694709 161.88424972 -7.10546875 163.64453125 C-6.39003906 164.18464844 -5.67460937 164.72476563 -4.9375 165.28125 C0.0992581 169.52460726 1.94643219 172.74862567 2.55859375 179.2421875 C2.80590377 186.27178754 2.78046091 192.32775829 -1.75 197.96875 C-6.76903738 203.23926316 -11.09977986 206.84907065 -18.5625 207.09375 C-19.614375 207.0525 -20.66625 207.01125 -21.75 206.96875 C-21.6675 208.0825 -21.585 209.19625 -21.5 210.34375 C-21.52708966 217.99657973 -24.87526663 224.90022235 -30.046875 230.4375 C-38.27043885 237.83116291 -46.98445635 239.55065067 -57.76171875 239.28125 C-66.14741331 238.80692365 -73.152937 235.19405477 -78.75 228.96875 C-84.03579644 221.93976538 -86.05184041 215.72212188 -85.75 206.96875 C-86.74 207.05125 -87.73 207.13375 -88.75 207.21875 C-94.39257544 207.17324536 -98.66861323 204.9236211 -102.7421875 201.09765625 C-109.07192328 194.15070557 -110.22496506 188.78369497 -110.05859375 179.41796875 C-109.6496468 174.84708065 -108.67863853 171.52856063 -105.75 167.96875 C-104.50007364 166.96303194 -103.2283385 165.98388881 -101.9375 165.03125 C-99.79854508 163.33388577 -98.86897923 162.58674893 -98.34765625 159.87890625 C-98.9978964 150.12530396 -105.59091568 143.78163384 -112.5625 137.65625 C-127.85982024 123.69640981 -140.57770259 103.46194371 -141.92700195 82.17651367 C-142.47241668 55.12090112 -142.47241668 55.12090112 -137.75 41.96875 C-137.32589844 40.77507812 -136.90179688 39.58140625 -136.46484375 38.3515625 C-127.46899751 15.44848878 -109.96477458 -1.37584033 -87.70019531 -11.22216797 C-58.86909581 -23.18339277 -24.9460192 -18.42603691 0 0 Z M-109.0234375 25.3671875 C-122.60326845 41.02821859 -125.90472021 60.16067611 -124.96142578 80.29443359 C-123.47606626 99.08268785 -112.15321207 114.5545128 -98.75 126.96875 C-97.35734081 128.13920383 -95.96154738 129.30593951 -94.5625 130.46875 C-85.72585785 138.1271732 -83.49522633 147.98784469 -80.75 158.96875 C-74.48 158.96875 -68.21 158.96875 -61.75 158.96875 C-61.75 145.10875 -61.75 131.24875 -61.75 116.96875 C-64.06 116.30875 -66.37 115.64875 -68.75 114.96875 C-71.01078672 114.18676555 -73.26140481 113.37466439 -75.5 112.53125 C-76.60859375 112.12003906 -77.7171875 111.70882812 -78.859375 111.28515625 C-81.52739236 110.07012672 -83.06427948 109.33457155 -84.75 106.96875 C-85.46140218 103.50938253 -85.33495415 100.13865831 -83.75 96.96875 C-80.41769393 95.30259696 -77.33766849 95.41635372 -73.75 95.96875 C-71.90488082 96.60206728 -70.07215706 97.2721158 -68.25 97.96875 C-57.40921372 101.80135121 -47.00235576 100.93257581 -36.37890625 96.87109375 C-32.55481725 95.5585164 -29.75467564 95.45906401 -25.75 95.96875 C-23.75 96.96875 -23.75 96.96875 -22.75 98.96875 C-22.24823598 102.40941757 -21.79082182 105.62259304 -23.8828125 108.55859375 C-26.42095758 110.47547738 -29.02078596 111.42616945 -32 112.53125 C-33.09828125 112.94503906 -34.1965625 113.35882813 -35.328125 113.78515625 C-38.76099759 114.97255396 -42.25733424 115.9708455 -45.75 116.96875 C-45.75 130.82875 -45.75 144.68875 -45.75 158.96875 C-39.48 158.96875 -33.21 158.96875 -26.75 158.96875 C-25.698125 155.318125 -25.698125 155.318125 -24.625 151.59375 C-20.79738313 139.28176803 -15.19781019 132.19370481 -5.7199707 123.57055664 C7.6744224 111.29791491 16.63532861 95.22616273 17.56640625 76.8515625 C18.22994571 55.17531178 12.52406804 37.82586922 -1.9609375 21.47265625 C-13.12757618 9.60132678 -28.58004896 1.03642975 -45.09912109 -0.20825195 C-71.7715565 -0.88244946 -90.68605066 6.02155946 -109.0234375 25.3671875 Z M-91.75 177.96875 C-93.17041821 180.80958641 -93.06452272 182.82352278 -92.75 185.96875 C-90.51793569 188.81655619 -89.20007001 189.81872666 -85.75 190.96875 C-83.71182867 191.07283607 -81.67042757 191.11735396 -79.62963867 191.12988281 C-77.7370356 191.14429413 -77.7370356 191.14429413 -75.80619812 191.15899658 C-74.42679017 191.16384503 -73.04738012 191.16812374 -71.66796875 191.171875 C-70.2517344 191.17762949 -68.83550007 191.18338719 -67.41926575 191.18914795 C-64.44934731 191.19965001 -61.47945587 191.20549766 -58.50952148 191.20898438 C-54.7132046 191.2144632 -50.91724744 191.23848108 -47.12104321 191.26695633 C-44.19471715 191.28562798 -41.26847691 191.29079073 -38.34209633 191.29232025 C-36.94311878 191.29533782 -35.54414243 191.30333605 -34.14522362 191.31650543 C-32.1830702 191.33365646 -30.22076782 191.32982783 -28.25854492 191.32519531 C-26.58667366 191.33066376 -26.58667366 191.33066376 -24.88102722 191.33624268 C-21.26629354 190.91197675 -18.85396471 189.84198989 -15.75 187.96875 C-14.32958179 185.12791359 -14.43547728 183.11397722 -14.75 179.96875 C-16.98206431 177.12094381 -18.29992999 176.11877334 -21.75 174.96875 C-23.78817133 174.86466393 -25.82957243 174.82014604 -27.87036133 174.80761719 C-29.7629644 174.79320587 -29.7629644 174.79320587 -31.69380188 174.77850342 C-33.07320983 174.77365497 -34.45261988 174.76937626 -35.83203125 174.765625 C-37.2482656 174.75987051 -38.66449993 174.75411281 -40.08073425 174.74835205 C-43.05065269 174.73784999 -46.02054413 174.73200234 -48.99047852 174.72851562 C-52.7867954 174.7230368 -56.58275256 174.69901892 -60.37895679 174.67054367 C-63.30528285 174.65187202 -66.23152309 174.64670927 -69.15790367 174.64517975 C-70.55688122 174.64216218 -71.95585757 174.63416395 -73.35477638 174.62099457 C-75.3169298 174.60384354 -77.27923218 174.60767217 -79.24145508 174.61230469 C-80.91332634 174.60683624 -80.91332634 174.60683624 -82.61897278 174.60125732 C-86.23370646 175.02552325 -88.64603529 176.09551011 -91.75 177.96875 Z M-68.75 206.96875 C-67.68447307 214.42743849 -67.55731527 215.16143473 -62.75 219.96875 C-58.29510707 222.70519367 -53.83051521 222.61185319 -48.75 221.96875 C-43.89977814 219.63345799 -41.26540375 216.7093186 -38.75 211.96875 C-38.75 210.31875 -38.75 208.66875 -38.75 206.96875 C-48.65 206.96875 -58.55 206.96875 -68.75 206.96875 Z " fill="#66C7F6" transform="translate(309.75,105.03125)"/>
<path d="M0 0 C2.83321072 1.92296642 4.84703196 4.35838079 7 7 C7.96873047 8.11761719 7.96873047 8.11761719 8.95703125 9.2578125 C15.23622389 16.80307453 15.23622389 16.80307453 15 22 C13.77798287 24.82993441 12.66886714 26.47446153 10.25 28.375 C6.7739444 29.340571 4.25640797 29.52644124 1 28 C-2.33748171 24.93312492 -5.17149612 21.53432278 -8 18 C-8.72960937 17.13890625 -9.45921875 16.2778125 -10.2109375 15.390625 C-12.58820722 12.21401131 -12.92961263 9.94169295 -13 6 C-10.28445302 0.051659 -6.40162153 -1.38507811 0 0 Z " fill="#74D2F8" transform="translate(178,70)"/>
<path d="M0 0 C1.45019531 0.19335938 1.45019531 0.19335938 2.9296875 0.390625 C6.7446007 1.00191673 9.3818581 1.56277768 12.5625 3.8125 C14.23328202 6.35499439 14.85154524 7.95667735 15 11 C14.23588805 14.20927019 13.47988941 15.61232814 10.90625 17.69140625 C7.1081223 19.40158472 4.10672957 18.95627497 0.125 18.3125 C-0.55691406 18.22033203 -1.23882812 18.12816406 -1.94140625 18.03320312 C-13.41127701 16.38372647 -13.41127701 16.38372647 -16.9375 13.3125 C-18.48471252 9.94503746 -18.51410188 7.66297593 -18 4 C-13.93441983 -3.22769807 -7.0708472 -1.08277474 0 0 Z " fill="#5EBFF4" transform="translate(376,188)"/>
<path d="M0 0 C2.0625 2.9375 2.0625 2.9375 2.6875 6.4375 C1.88516309 10.93058672 0.59848066 12.09575638 -2.9375 14.9375 C-5.68421385 15.94881267 -8.42205923 16.39813611 -11.3125 16.8125 C-12.40691406 17.00585938 -12.40691406 17.00585938 -13.5234375 17.203125 C-18.66517858 18.02947624 -24.21992547 18.65863054 -28.8125 15.75 C-30.94388232 12.31610626 -31.1666956 9.16942637 -30.4375 5.25 C-27.72094129 1.06197198 -23.6835216 0.31604127 -19.0546875 -0.6875 C-4.67486859 -3.28235454 -4.67486859 -3.28235454 0 0 Z " fill="#70CFF8" transform="translate(151.9375,189.0625)"/>
<path d="M0 0 C2.13138232 3.43389374 2.3541956 6.58057363 1.625 10.5 C-1.09155871 14.68802802 -5.1289784 15.43395873 -9.7578125 16.4375 C-21.13226744 18.49003322 -21.13226744 18.49003322 -25.875 17.8125 C-29.56686542 15.22033917 -30.70383761 13.77100936 -31.5 9.3125 C-30.69766309 4.81941328 -29.41098066 3.65424362 -25.875 0.8125 C-23.12828615 -0.19881267 -20.39044077 -0.64813611 -17.5 -1.0625 C-16.77039063 -1.19140625 -16.04078125 -1.3203125 -15.2890625 -1.453125 C-10.14732142 -2.27947624 -4.59257453 -2.90863054 0 0 Z " fill="#63C5F6" transform="translate(388.875,147.1875)"/>
<path d="M0 0 C0.68191406 0.09216797 1.36382812 0.18433594 2.06640625 0.27929688 C13.53627701 1.92877353 13.53627701 1.92877353 17.0625 5 C18.60971252 8.36746254 18.63910188 10.64952407 18.125 14.3125 C16.4375 17.3125 16.4375 17.3125 13.125 19.3125 C8.70200324 19.54687075 4.49276063 18.98134501 0.125 18.3125 C-0.84179688 18.18359375 -1.80859375 18.0546875 -2.8046875 17.921875 C-6.6196007 17.31058327 -9.2568581 16.74972232 -12.4375 14.5 C-14.10828202 11.95750561 -14.72654524 10.35582265 -14.875 7.3125 C-14.11088805 4.10322981 -13.35488941 2.70017186 -10.78125 0.62109375 C-6.9831223 -1.08908472 -3.98172957 -0.64377497 0 0 Z " fill="#73D1F8" transform="translate(135.875,145.6875)"/>
<path d="M0 0 C2.22604697 0.90743316 3.34751376 1.87010968 4.83984375 3.75 C6.37828002 9.68396846 6.37828002 9.68396846 4.67578125 13.0546875 C2.44663359 16.32726599 0.09194895 19.43268096 -2.41015625 22.5 C-2.86261719 23.08910156 -3.31507813 23.67820312 -3.78125 24.28515625 C-6.42472732 27.50620004 -7.67067308 28.62282781 -11.84375 29.70703125 C-15.73784323 29.75748475 -17.25110024 29.32659247 -20.16015625 26.75 C-21.66015625 24 -21.66015625 24 -22.16015625 20.75 C-19.09287993 11.77339062 -10.69505588 -1.27464353 0 0 Z " fill="#6ACBF7" transform="translate(341.16015625,69.25)"/>
<path d="M0 0 C2.375 1.5625 2.375 1.5625 4 4 C4.4592992 10.10211791 3.47065112 14.65944824 1.25 20.3125 C0.99734375 21.01439453 0.7446875 21.71628906 0.484375 22.43945312 C-1.00649883 26.34926975 -2.22035706 29.02577873 -6 31 C-10.39593437 31.63940864 -12.27096589 31.51187502 -15.9375 28.9375 C-18.56066245 25.20148076 -18.35910628 23.51645206 -18 19 C-17.26568963 16.1626577 -16.26240838 13.47411769 -15.1875 10.75 C-14.92646484 10.04359375 -14.66542969 9.3371875 -14.39648438 8.609375 C-11.90040587 2.10108142 -11.90040587 2.10108142 -9 0 C-5.41563853 -1.19478716 -3.63093708 -0.96330984 0 0 Z " fill="#6ECEF8" transform="translate(304,48)"/>
<path d="M0 0 C2.98972909 1.13096944 5.6450136 2.66067896 8.375 4.3125 C9.08527344 4.71662109 9.79554688 5.12074219 10.52734375 5.53710938 C13.92509893 7.51967051 15.76401772 8.64602659 18 12 C18.65753425 18.90410959 18.65753425 18.90410959 16.5 22.5 C13.02990035 24.58205979 9.90690386 24.56463613 6 24 C3.01027091 22.86903056 0.3549864 21.33932104 -2.375 19.6875 C-3.08527344 19.28337891 -3.79554688 18.87925781 -4.52734375 18.46289062 C-7.92509893 16.48032949 -9.76401772 15.35397341 -12 12 C-12.65753425 5.09589041 -12.65753425 5.09589041 -10.5 1.5 C-7.02990035 -0.58205979 -3.90690386 -0.56463613 0 0 Z " fill="#5ABCF3" transform="translate(357,224)"/>
<path d="M0 0 C2.5 1.5 2.5 1.5 4 4 C4.54686219 6.77988279 4.72991469 9.25208587 4 12 C1.04854832 15.63916858 -2.74508062 17.91955123 -6.75 20.25 C-7.33265625 20.61351563 -7.9153125 20.97703125 -8.515625 21.3515625 C-13.19679792 24.0822467 -16.59597001 24.4788381 -22 24 C-24.5 22.5 -24.5 22.5 -26 20 C-26.77403846 14.58173077 -26.77403846 14.58173077 -26 12 C-19.902156 4.83392056 -9.68305662 -1.93661132 0 0 Z " fill="#66C9F7" transform="translate(371,104)"/>
<path d="M0 0 C3.42523652 3.60411734 5.09914942 7.21797089 6.75 11.875 C7.17796875 13.04804687 7.6059375 14.22109375 8.046875 15.4296875 C9.04403264 19.16494195 9.32019243 22.1530504 9 26 C6.9375 28.9375 6.9375 28.9375 4 31 C0.46832378 31.49567386 -1.81960208 31.61655736 -5.01171875 29.94921875 C-7.83139092 27.18494289 -8.93988307 23.95208504 -10.25 20.3125 C-10.518125 19.62994141 -10.78625 18.94738281 -11.0625 18.24414062 C-12.88844251 13.31130103 -13.41273071 9.25807619 -13 4 C-9.37724092 -0.87198634 -5.73681918 -1.63909119 0 0 Z " fill="#74D1F8" transform="translate(217,48)"/>
<path d="M0 0 C2.5 1.5 2.5 1.5 4 4 C4.77403846 9.41826923 4.77403846 9.41826923 4 12 C-1.14305137 18.04402387 -8.72160874 22.7550964 -16.484375 24.5859375 C-19.68222647 24.74222347 -21.76831713 24.13900972 -24.5 22.5 C-26.30293091 19.49511516 -26.47744877 17.44327882 -26.53125 14 C-25.15297508 8.81120029 -19.60253438 6.28272474 -15.25 3.75 C-14.66734375 3.38648438 -14.0846875 3.02296875 -13.484375 2.6484375 C-8.80320208 -0.0822467 -5.40402999 -0.4788381 0 0 Z " fill="#6CCDF8" transform="translate(163,224)"/>
<path d="M0 0 C2.98972909 1.13096944 5.6450136 2.66067896 8.375 4.3125 C9.08527344 4.71662109 9.79554688 5.12074219 10.52734375 5.53710938 C13.92509893 7.51967051 15.76401772 8.64602659 18 12 C18.65753425 18.90410959 18.65753425 18.90410959 16.5 22.5 C13.01682024 24.58990785 9.91725301 24.61909389 6 24 C2.80844328 22.69484005 -0.02892768 20.96599695 -2.9375 19.125 C-3.70384766 18.66480469 -4.47019531 18.20460938 -5.25976562 17.73046875 C-10.83996333 14.32007334 -10.83996333 14.32007334 -12 12 C-12.56872038 4.9478673 -12.56872038 4.9478673 -10.5 1.5 C-7.02990035 -0.58205979 -3.90690386 -0.56463613 0 0 Z " fill="#74D2F8" transform="translate(149,104)"/>
<path d="M0 0 C0.66 -0.0103125 1.32 -0.020625 2 -0.03125 C4.91796104 0.7438334 6.0931088 2.19104167 8 4.5 C8.51757812 7.09375 8.51757812 7.09375 8.53125 10 C8.53640625 11.051875 8.5415625 12.10375 8.546875 13.1875 C8.53140625 14.280625 8.5159375 15.37375 8.5 16.5 C8.51546875 17.593125 8.5309375 18.68625 8.546875 19.8125 C8.54171875 20.864375 8.5365625 21.91625 8.53125 23 C8.52673828 23.9590625 8.52222656 24.918125 8.51757812 25.90625 C7.857725 29.21298564 6.58886445 30.40908706 4 32.5 C2 33.03125 2 33.03125 0 33 C-0.99 33.01546875 -0.99 33.01546875 -2 33.03125 C-4.91796104 32.2561666 -6.0931088 30.80895833 -8 28.5 C-8.51757812 25.90625 -8.51757812 25.90625 -8.53125 23 C-8.53640625 21.948125 -8.5415625 20.89625 -8.546875 19.8125 C-8.53140625 18.719375 -8.5159375 17.62625 -8.5 16.5 C-8.51546875 15.406875 -8.5309375 14.31375 -8.546875 13.1875 C-8.53914062 11.6096875 -8.53914062 11.6096875 -8.53125 10 C-8.52673828 9.0409375 -8.52222656 8.081875 -8.51757812 7.09375 C-7.60329874 2.51200272 -4.67433964 -0.07303656 0 0 Z " fill="#72D0F8" transform="translate(256,39.5)"/>
</svg>
